<svg xmlns="http://www.w3.org/2000/svg" width="1200" height="630" viewBox="0 0 1200 630" role="img" aria-label="Word Chain Game preview">
  <rect width="1200" height="630" fill="#17162b"/>
  <circle cx="1020" cy="120" r="170" fill="#76e4f7" opacity="0.16"/>
  <circle cx="170" cy="520" r="220" fill="#b388ff" opacity="0.12"/>
  <rect x="84" y="86" width="1032" height="458" rx="34" fill="#1e1d38" stroke="#4d4a7f" stroke-width="2"/>
  <text x="120" y="160" fill="#76e4f7" font-family="Arial, sans-serif" font-size="26" font-weight="700" letter-spacing="2">LETTER CHAIN PUZZLE</text>
  <text x="120" y="252" fill="#ffffff" font-family="Arial, sans-serif" font-size="68" font-weight="700">Word Chain Game</text>
  <text x="120" y="310" fill="#d9d6f5" font-family="Arial, sans-serif" font-size="28">Keep the chain moving one last letter at a time.</text>
  <rect x="120" y="366" width="176" height="52" rx="26" fill="#76e4f7"/>
  <text x="208" y="400" text-anchor="middle" fill="#17162b" font-family="Arial, sans-serif" font-size="24" font-weight="700">Play now</text>
  <g transform="translate(736 146)">
    <circle cx="70" cy="110" r="46" fill="#76e4f7"/>
    <circle cx="164" cy="160" r="46" fill="#b388ff"/>
    <circle cx="258" cy="110" r="46" fill="#ffd166"/>
    <path d="M114 128 C132 138, 148 146, 118 146" fill="none" stroke="#f4f2ff" stroke-width="8" stroke-linecap="round"/>
    <path d="M208 146 C226 136, 242 128, 214 128" fill="none" stroke="#f4f2ff" stroke-width="8" stroke-linecap="round"/>
    <text x="70" y="122" text-anchor="middle" fill="#17162b" font-family="Arial, sans-serif" font-size="28" font-weight="700">CAT</text>
    <text x="164" y="172" text-anchor="middle" fill="#17162b" font-family="Arial, sans-serif" font-size="28" font-weight="700">TREE</text>
    <text x="258" y="122" text-anchor="middle" fill="#17162b" font-family="Arial, sans-serif" font-size="28" font-weight="700">EEL</text>
  </g>
  <text x="120" y="492" fill="#9c97d1" font-family="Arial, sans-serif" font-size="22">Live at word-chain-game.com</text>
</svg>
